PathFileType	4	(X/Y/Z)	C:\Users\Basilio\Documents\Thesis Gigler\squatting_fais\c3dfiles\058\SLS_front_pre1\markers_experimental.trc
DataRate	CameraRate	NumFrames	NumMarkers	Units	OrigDataRate	OrigDataStartFrame	OrigNumFrames
200.000000	200.000000	4	61	mm	200.000000	602	1204
Frame#	Time	FHD			LBHD			RBHD			C7			T10			CLAV			LSHO			LUUPA			LMUPA			LDUPA			LLEP			LMEP			LUL			LRFIN			RSHO			RUPA1			RMUPA			RDUPA			RLEP			RMEP			RRAD			RUL			RUFIN			LASI			RASI			USACR			LSACR			RSACR			LTHI1			LTHI2			LTHI3			LTHI4			LLFC			LMFC			LTIB1			LTIB2			LTIB3			LTIB4			LLMAL			LMMAL			LHEE			LMT1			LMT2			LMT5			RTHI			RTHI2			RTHI3			RTHI4			RLFC			RMFC			RTIB1			RTIB2			RTIB3			RTIB4			RLMAL			RMMAL			RHEE			RMT1			RMT2			RMT5			LRAD			
		X1	Y1	Z1	X2	Y2	Z2	X3	Y3	Z3	X4	Y4	Z4	X5	Y5	Z5	X6	Y6	Z6	X7	Y7	Z7	X8	Y8	Z8	X9	Y9	Z9	X10	Y10	Z10	X11	Y11	Z11	X12	Y12	Z12	X13	Y13	Z13	X14	Y14	Z14	X15	Y15	Z15	X16	Y16	Z16	X17	Y17	Z17	X18	Y18	Z18	X19	Y19	Z19	X20	Y20	Z20	X21	Y21	Z21	X22	Y22	Z22	X23	Y23	Z23	X24	Y24	Z24	X25	Y25	Z25	X26	Y26	Z26	X27	Y27	Z27	X28	Y28	Z28	X29	Y29	Z29	X30	Y30	Z30	X31	Y31	Z31	X32	Y32	Z32	X33	Y33	Z33	X34	Y34	Z34	X35	Y35	Z35	X36	Y36	Z36	X37	Y37	Z37	X38	Y38	Z38	X39	Y39	Z39	X40	Y40	Z40	X41	Y41	Z41	X42	Y42	Z42	X43	Y43	Z43	X44	Y44	Z44	X45	Y45	Z45	X46	Y46	Z46	X47	Y47	Z47	X48	Y48	Z48	X49	Y49	Z49	X50	Y50	Z50	X51	Y51	Z51	X52	Y52	Z52	X53	Y53	Z53	X54	Y54	Z54	X55	Y55	Z55	X56	Y56	Z56	X57	Y57	Z57	X58	Y58	Z58	X59	Y59	Z59	X60	Y60	Z60	X61	Y61	Z61	

603	3.01	-222.4834594726563	1510.439819335938	-617.5996093750001	-370.0995178222657	1443.91064453125	-697.0281372070314	-206.0643310546876	1520.192626953125	-758.7600708007814	-383.0844116210938	1325.002807617188	-710.0093383789064	-510.1983337402345	1060.174560546875	-709.7470092773439	-237.1251068115235	1242.516357421875	-689.5753784179689	-235.7323150634766	1295.312255859375	-843.3773193359377	-99.65309906005862	1214.156372070313	-963.0078735351565	-70.66061401367189	1250.890502929688	-942.6179199218752	-29.68016052246094	1211.841064453125	-962.9868164062502	48.28884124755861	1212.77294921875	-954.1885986328127	51.99989700317384	1157.424560546875	-918.9409179687502	318.1997680664063	1249.40234375	-919.266540527344	409.9981994628907	1251.506103515625	-836.7971801757815	-256.0053100585938	1308.874145507813	-542.5404052734376	-116.1412353515625	1221.079467773438	-423.1276245117189	-90.62096405029298	1258.606079101563	-445.960418701172	-46.92091751098634	1227.711181640625	-420.0805664062501	21.39073562622071	1217.942749023438	-423.9496459960939	30.70139122009278	1159.504028320313	-472.3379211425782	293.6875915527344	1248.425903320313	-503.8115844726564	290.8712463378907	1260.544799804688	-423.6219787597657	385.0461730957032	1272.606811523438	-489.8934326171876	-388.438934326172	847.6038208007815	-854.1011352539065	-387.256317138672	833.1363525390627	-618.4100952148439	-567.4035034179689	926.8156738281252	-720.4387817382814	-579.8659667968751	897.9757080078127	-748.9727783203126	-578.9339599609376	894.238464355469	-691.2200317382814	-283.1650390625001	654.5936889648439	-928.2048339843752	-204.7340087890626	623.0415649414064	-919.7564697265627	-176.7750549316407	652.6652221679689	-890.1022949218752	-186.6299438476563	565.6763305664064	-910.4314575195315	-111.3991470336914	502.6820678710939	-897.2642211914065	-95.65575408935548	510.1199951171876	-770.1878051757815	24.61527252197266	452.5540771484376	-857.485046386719	19.5608139038086	392.7863769531251	-917.022888183594	50.83300399780275	412.0643005371095	-891.7156372070315	111.208984375	358.3537597656251	-867.1597900390627	217.2846832275391	179.3846893310547	-886.212341308594	222.1892242431641	206.1373748779297	-796.8808593750002	201.8322753906251	108.9581604003907	-834.6680908203127	362.0704650878907	263.7990722656251	-817.5615234375002	363.2274780273438	270.3986206054688	-863.028991699219	346.5096740722657	219.3882904052735	-916.415710449219	-365.4596557617188	648.6173095703126	-554.4841918945314	-298.2843933105469	640.1446533203126	-558.4263916015626	-275.7214965820313	663.2091674804689	-560.9678344726564	-261.6992797851563	567.8527832031251	-580.1871337890626	-149.3791046142578	459.8122863769532	-613.5384521484376	-125.4019546508789	474.2385864257814	-749.7603149414064	-183.8503875732422	295.2904968261719	-727.4133300781251	-250.9917907714844	234.5982208251954	-661.5576171875001	-227.6841278076172	218.5694732666016	-700.1972045898439	-259.7429504394532	192.1168823242188	-737.9507446289064	-359.6247253417969	114.1823883056641	-695.5142211914064	-328.7158508300782	136.9681854248047	-782.306823730469	-435.8944702148439	103.1328125	-758.5165405273439	-226.8817596435547	58.98055648803712	-769.5571289062502	-221.4427337646485	59.27721023559572	-717.1333007812501	-271.5524291992188	27.92807388305665	-665.5102539062501	nan	nan	nan	
604	3.015	-222.2636260986329	1510.16259765625	-617.5971069335939	-369.6269836425782	1443.692260742188	-697.1273803710939	-205.6985321044922	1519.9609375	-758.7866210937501	-382.7136840820313	1324.91943359375	-710.0691528320314	-510.0619201660157	1060.192626953125	-709.7642211914064	-236.8160247802735	1242.196044921875	-689.6348876953126	-235.3781433105469	1295.080444335938	-843.3946533203127	-99.42131805419925	1213.882202148438	-962.9910278320315	-70.28739166259767	1250.478271484375	-942.5595703125002	-29.44131660461426	1211.512451171875	-962.8587036132815	48.6235809326172	1212.376220703125	-954.1752929687502	52.10962295532228	1157.150756835938	-918.7399902343752	318.4860839843751	1248.9892578125	-919.137145996094	410.335418701172	1250.96337890625	-836.4527587890627	-255.5482025146485	1308.64892578125	-542.6290283203126	-115.816032409668	1220.743774414063	-423.3161926269532	-90.11336517333986	1258.092041015625	-446.2538146972657	-46.63739013671876	1227.195922851563	-420.1795349121095	21.9319133758545	1217.638671875	-424.1488647460939	31.04328918457032	1159.05126953125	-472.5099487304689	294.1738586425782	1247.801147460938	-504.018035888672	291.6804504394532	1260.23095703125	-423.6340637207032	385.3935546875001	1271.732177734375	-490.0303649902345	-388.6966247558595	847.4453735351565	-853.918640136719	-387.3821411132814	833.089782714844	-618.2015991210939	-567.3651123046876	926.866149902344	-720.3250122070314	-579.8779296875001	898.0324707031252	-748.8688964843751	-578.9310302734376	894.2659912109377	-691.1203613281251	-283.2395324707032	654.6900634765626	-928.085632324219	-204.8812561035157	623.1303100585939	-919.7507934570315	-176.8582153320313	652.7141113281251	-890.0646972656252	-186.7224731445313	565.7555541992189	-910.3450317382815	-111.4468841552735	502.7600708007814	-897.2424316406252	-95.63065338134767	510.2279357910157	-770.1513671875002	24.01775932312012	452.7135009765626	-857.717224121094	19.50999832153321	392.8469848632814	-917.0516357421877	50.78378677368165	412.1094665527345	-891.7651367187502	111.1587905883789	358.4080200195313	-867.2377929687502	217.3203125000001	179.4939880371094	-886.3536376953127	222.1170043945313	206.268295288086	-797.0434570312502	201.9424743652344	109.005355834961	-834.7609863281252	362.0280151367188	263.8383178710938	-817.786315917969	363.1735229492188	270.6269531250001	-863.3149414062502	346.4137573242188	219.5025634765626	-916.5495605468752	-365.5151977539063	648.6092529296876	-554.3085937500001	-298.3618774414063	640.1898193359376	-558.1626586914064	-275.8096313476563	663.2561035156251	-560.7635498046876	-261.7247924804688	567.9140625000001	-580.0216674804689	-149.4177856445313	459.795379638672	-613.3246459960939	-125.5643768310547	474.2830505371095	-749.6498413085939	-183.8174591064453	295.3890075683594	-727.2488403320314	-251.0565338134766	234.6620635986329	-661.4027709960939	-227.7517547607422	218.6398315429688	-700.0703125000001	-259.7666015625001	192.1068725585938	-737.7736816406251	-359.6553649902344	114.1319122314453	-695.4519653320314	-328.7312622070313	137.0224761962891	-782.2756347656252	-435.8993225097657	103.1713256835938	-758.4613037109376	-226.8042907714844	59.02186584472658	-769.486755371094	-221.4549713134766	59.26002883911134	-717.0809326171876	-271.5192871093751	27.98246383666993	-665.4298095703126	nan	nan	nan	
605	3.02	-221.7153625488282	1510.056030273438	-617.7763671875001	-369.2467956542969	1443.557006835938	-697.1578369140626	-205.1784362792969	1519.859008789063	-758.8848266601564	-382.3747253417969	1324.831665039063	-710.1117553710939	-509.9271240234376	1060.2861328125	-709.7822875976564	-236.5397338867188	1241.981811523438	-689.6986694335939	-235.2325134277344	1295.003051757813	-843.3676757812502	-99.21850585937503	1213.562133789063	-962.9641113281252	-69.98563385009767	1250.203491210938	-942.486022949219	-29.28344726562501	1211.172729492188	-962.799255371094	48.97053909301759	1212.048706054688	-954.1644287109377	52.55749130249025	1156.797729492188	-918.8651123046877	318.7810668945313	1248.47705078125	-918.926696777344	410.5366821289064	1250.405517578125	-836.2855224609377	-255.2061767578126	1308.44775390625	-542.7943725585939	-115.4226303100586	1220.57373046875	-423.4456481933595	-89.61696624755861	1257.792724609375	-446.2307128906251	-46.44213867187501	1226.840698242188	-420.2760009765626	22.20022010803223	1217.18017578125	-424.3383789062501	31.24824333190919	1158.6513671875	-472.6835021972657	294.4218139648438	1247.096313476563	-504.2498168945314	291.8454895019532	1259.618530273438	-423.7797851562501	385.860076904297	1271.236694335938	-490.1653137207032	-388.8582153320314	847.4739990234377	-853.832702636719	-387.4334106445314	833.145202636719	-618.0797729492189	-567.3078613281251	926.9460449218752	-720.2301635742189	-579.8782958984376	898.1299438476565	-748.7800903320314	-578.9316406250001	894.3376464843752	-691.0528564453126	-283.4187622070313	654.7305297851564	-927.9846191406252	-205.0214385986329	623.2192993164064	-919.708435058594	-177.1303100585938	652.8290405273439	-890.0401611328127	-186.8361053466797	565.8083496093751	-910.3104248046877	-111.5746612548828	502.8348083496095	-897.1738891601565	-95.66487884521486	510.3362426757814	-770.1699218750002	23.86704444885254	452.6954040527345	-857.7005004882815	19.33922004699707	393.0154724121095	-917.0198364257815	50.70909881591798	412.191131591797	-891.810974121094	111.1277465820313	358.5057373046876	-867.3345947265627	217.1739807128907	179.669921875	-886.393737792969	222.1778564453126	206.5582122802735	-797.1350097656252	201.8269653320313	109.1678543090821	-834.795593261719	362.1302185058594	264.0381469726563	-817.964294433594	363.2169799804688	270.8216247558594	-863.5504150390627	346.3254394531251	219.5767974853516	-916.7541503906252	-365.5312194824219	648.7116699218751	-554.1657104492189	-298.4272766113282	640.3118896484376	-558.0002441406251	-276.0787963867188	663.2130126953126	-560.4253540039064	-261.7749023437501	567.9673461914064	-579.8182983398439	-149.4365234375	459.8814697265626	-613.1016845703126	-125.7981033325196	474.3070373535157	-749.4196777343751	-183.7381439208985	295.4123840332032	-727.0744628906251	-251.1974029541016	234.6648406982422	-661.2509765625001	-227.7507934570313	218.665756225586	-699.9449462890626	-259.7466125488282	192.1885375976563	-737.6858520507814	-359.6532897949219	114.0976867675782	-695.4126586914064	-328.7278137207032	137.061996459961	-782.2149047851565	-435.9078063964845	103.1521377563477	-758.4129028320314	-226.7606353759766	59.06382751464845	-769.433776855469	-221.427719116211	59.28380203247072	-717.0766601562501	-271.5428161621094	27.94642066955567	-665.4710083007814	nan	nan	nan	
606	3.025	-221.4043121337891	1510.083374023438	-617.8485107421876	-369.0626831054688	1443.467041015625	-697.1953125000001	-204.8368682861329	1519.744384765625	-758.9818725585939	-382.0339050292969	1324.804077148438	-710.2098999023439	-509.8031005859376	1060.337646484375	-709.7746582031251	-236.2553863525391	1241.8369140625	-689.7519531250001	-234.9296112060547	1294.754760742188	-843.394714355469	-98.99503326416018	1213.26416015625	-962.8894042968752	-69.74765777587892	1249.959594726563	-942.4329223632815	-28.92500114440919	1210.875854492188	-962.761657714844	49.10029220581056	1211.720825195313	-954.0066528320315	52.47508621215822	1156.31494140625	-918.6179809570315	319.0536499023438	1248.04833984375	-918.711120605469	410.611785888672	1249.901977539063	-836.0792236328127	-255.0543670654297	1308.294921875	-542.8312377929689	-115.255355834961	1220.124389648438	-423.5230102539064	-89.40560913085939	1257.730346679688	-446.3596801757814	-46.16574478149415	1226.419921875	-420.4819946289064	22.48699188232422	1216.611206054688	-424.5114746093751	31.49783325195313	1158.380981445313	-472.9486083984376	294.7269287109376	1246.477172851563	-504.412078857422	292.5166931152344	1259.254150390625	-423.8876342773439	386.6032714843751	1270.8408203125	-490.4812316894532	-388.8233032226564	847.4255371093752	-853.7368164062502	-387.4677124023439	833.1880493164065	-617.9257812500001	-567.3384399414064	927.0798950195315	-720.1112060546876	-579.8463134765626	898.2199707031252	-748.7433471679689	-578.8925781250001	894.4342041015627	-690.9520263671876	-283.5565185546876	654.8276367187501	-927.886901855469	-205.1679687500001	623.2707519531251	-919.6428222656252	-177.2184143066407	652.9190673828126	-889.9924316406252	-186.9599914550782	565.9231567382814	-910.219909667969	-111.655029296875	502.9089660644532	-897.2071533203127	-95.74969482421876	510.4142456054689	-770.1053466796877	23.8044548034668	452.8097534179689	-857.7634887695315	19.30018615722657	393.1129150390626	-917.0670166015627	50.67702102661134	412.4956665039064	-891.890808105469	111.1038589477539	358.6307678222657	-867.384460449219	217.1453857421876	179.9029235839844	-886.5654907226565	222.4273834228516	207.047103881836	-797.231872558594	201.8374938964844	109.3774871826172	-834.8413696289065	362.2387084960938	264.3173828125001	-818.188659667969	363.1604309082032	270.9639282226563	-863.8003540039065	346.2774047851563	219.7276000976563	-917.0137329101565	-365.7453918457032	648.7733764648439	-553.9558105468751	-298.5358276367188	640.3837890625001	-557.8698730468751	-276.3337402343751	663.3410034179689	-560.0531616210939	-261.8646240234376	568.0619506835939	-579.6463012695314	-149.4377746582032	459.9763183593751	-612.9562988281251	-125.8609085083008	474.4460754394532	-749.1205444335939	-183.6610870361328	295.5201416015626	-726.9033203125001	-251.3016967773438	234.5944366455079	-661.1445922851564	-227.7218933105469	218.6950988769532	-699.8265380859376	-259.6895141601563	192.2188873291016	-737.6013183593751	-359.6212158203126	114.1442794799805	-695.3698120117189	-328.6996765136719	137.0516357421875	-782.1667480468752	-435.9483032226564	103.1596374511719	-758.4216918945314	-226.8101654052735	59.05979537963869	-769.420349121094	-221.4324798583985	59.28345108032228	-717.0663452148439	-271.5585937500001	27.87194252014161	-665.4606933593751	nan	nan	nan	
